<svg xmlns="http://www.w3.org/2000/svg" viewBox="0 0 24 30" fill="none" x="0px" y="0px"><path fill-rule="evenodd" clip-rule="evenodd" d="M21.3535 20.6464L3.35352 2.64644L2.64641 3.35355L20.6464 21.3535L21.3535 20.6464Z" fill="black"/><path fill-rule="evenodd" clip-rule="evenodd" d="M6 14.5C4.61929 14.5 3.5 15.6193 3.5 17C3.5 18.3807 4.61929 19.5 6 19.5C7.38071 19.5 8.5 18.3807 8.5 17C8.5 15.6193 7.38071 14.5 6 14.5ZM2.5 17C2.5 15.067 4.067 13.5 6 13.5C7.933 13.5 9.5 15.067 9.5 17C9.5 18.933 7.933 20.5 6 20.5C4.067 20.5 2.5 18.933 2.5 17Z" fill="black"/><path fill-rule="evenodd" clip-rule="evenodd" d="M9.5 3.5V5.4375H8.5V3.5H9.5ZM9.5 9.375V17.25H8.5V9.375H9.5Z" fill="black"/><path fill-rule="evenodd" clip-rule="evenodd" d="M19.9654 16.5827C19.7899 15.5368 18.9632 14.7101 17.9173 14.5346L18.0827 13.5484C19.5493 13.7944 20.7056 14.9507 20.9516 16.4173L19.9654 16.5827ZM15.4943 15.5073C15.1837 15.9239 15 16.4398 15 17C15 18.3807 16.1193 19.5 17.5 19.5C18.0761 19.5 18.6054 19.3057 19.028 18.9789L19.6399 19.7698C19.0483 20.2274 18.3053 20.5 17.5 20.5C15.567 20.5 14 18.933 14 17C14 16.2171 14.2577 15.4928 14.6927 14.9095L15.4943 15.5073Z" fill="black"/><path fill-rule="evenodd" clip-rule="evenodd" d="M21 5.5V16.25H20V5.5H21Z" fill="black"/><path fill-rule="evenodd" clip-rule="evenodd" d="M8.5 3.59446C8.5 2.97367 9.05973 2.50288 9.67134 2.60925L20.1713 4.43533C20.6503 4.51864 21 4.93437 21 5.42055V8.40554C21 9.02633 20.4403 9.49712 19.8287 9.39075L10.9143 7.84043L11.0857 6.85522L20 8.40554V5.42055L9.5 3.59446V4.5H8.5V3.59446Z" fill="black"/><text x="0" y="39" fill="#000000" font-size="5px" font-weight="bold" font-family="'Helvetica Neue', Helvetica, Arial-Unicode, Arial, Sans-serif">Created by Kawalan Icon</text><text x="0" y="44" fill="#000000" font-size="5px" font-weight="bold" font-family="'Helvetica Neue', Helvetica, Arial-Unicode, Arial, Sans-serif">from the Noun Project</text></svg>